<?xml version="1.0" standalone="no"?>
<!DOCTYPE svg PUBLIC "-//W3C//DTD SVG 20010904//EN"
 "http://www.w3.org/TR/2001/REC-SVG-20010904/DTD/svg10.dtd">
<svg version="1.0" xmlns="http://www.w3.org/2000/svg"
 width="800.000000pt" height="800.000000pt" viewBox="0 0 800.000000 800.000000"
 preserveAspectRatio="xMidYMid meet">

<g transform="translate(0.000000,800.000000) scale(0.100000,-0.100000)"
fill="#000000" stroke="none">
<path d="M2780 4005 l0 -3995 2090 0 2090 0 0 23 c-1 12 2 37 6 55 4 19 2 38
-5 46 -8 10 -9 16 -1 21 18 11 11 40 -12 50 -17 8 -25 22 -29 56 -12 81 -17
209 -9 209 4 0 8 6 7 12 -1 38 5 65 19 83 11 14 18 16 21 8 5 -15 33 -18 33
-4 0 5 -5 11 -11 13 -7 2 -6 13 4 33 8 17 22 46 30 65 9 19 47 100 85 180 70
145 84 184 128 360 14 52 38 129 55 170 17 41 33 99 36 128 3 29 9 55 13 57 8
5 28 -171 41 -375 9 -143 14 -194 43 -440 23 -195 39 -477 34 -620 l-4 -130
278 0 278 0 0 830 c0 457 -3 830 -7 831 -5 0 -35 2 -67 5 -35 2 -83 15 -115
30 -46 21 -71 26 -136 26 -47 0 -109 7 -150 18 -109 29 -230 42 -251 27 -15
-10 -63 9 -70 28 -4 8 -12 15 -20 15 -7 0 -30 11 -50 25 -20 14 -42 25 -49 25
-7 0 -38 11 -69 25 -31 14 -56 22 -56 18 0 -4 -7 2 -15 13 -14 18 -14 18 -15
-4 0 -14 -4 -21 -11 -17 -6 4 -8 9 -5 12 3 3 -1 12 -9 20 -8 8 -17 26 -21 41
-7 37 -20 57 -33 54 -15 -3 -13 9 4 32 12 16 18 17 27 8 7 -7 31 -12 55 -12
37 0 44 -4 58 -30 21 -40 32 -38 27 4 -2 19 1 50 8 70 10 31 8 39 -12 70 -28
43 -66 60 -116 54 l-38 -6 4 34 c2 19 7 34 11 34 4 0 7 17 7 38 0 20 4 87 8
147 7 96 6 122 -13 200 -34 144 -72 265 -93 302 l-21 34 29 -7 c16 -3 83 -24
148 -45 65 -22 121 -37 124 -34 3 3 -9 10 -26 16 -19 6 -32 18 -32 27 0 29 39
82 59 82 21 0 33 22 25 45 -8 19 -12 19 -32 -1 -12 -12 -17 -13 -20 -4 -3 7 0
15 4 19 12 8 64 78 64 86 0 3 -10 -1 -23 -10 -13 -8 -27 -12 -31 -8 -4 4 -4
-1 0 -12 6 -14 4 -17 -9 -12 -11 4 -14 2 -10 -8 3 -8 -2 -18 -11 -21 -9 -3
-16 -13 -16 -21 0 -8 -6 -27 -14 -41 -8 -15 -17 -40 -21 -56 -6 -26 -8 -28
-43 -22 -72 11 -147 41 -143 56 2 8 10 42 19 75 8 33 25 74 36 90 12 17 35 56
50 87 16 35 39 64 57 75 28 17 38 33 20 33 -6 0 -13 -5 -16 -11 -4 -6 -13 -8
-21 -5 -8 3 -21 3 -29 0 -22 -9 -68 -91 -61 -110 3 -9 -5 -37 -19 -63 -13 -25
-32 -68 -40 -96 -9 -27 -18 -56 -20 -63 -3 -8 -26 11 -57 48 -96 112 -89 97
-77 170 6 36 20 79 31 97 20 34 182 179 224 201 49 26 85 6 180 -99 18 -19 42
-43 54 -54 20 -19 22 -19 31 -2 16 28 40 19 56 -22 13 -33 26 -45 86 -76 39
-20 76 -40 82 -45 10 -9 12 -116 2 -160 -3 -14 -11 -51 -18 -82 -7 -32 -20
-65 -31 -74 -10 -10 -18 -23 -18 -31 0 -8 -7 -21 -15 -29 -8 -9 -15 -24 -15
-35 0 -23 -9 -24 -55 -2 -41 19 -41 22 -15 65 11 18 20 46 20 61 l0 28 -29
-20 c-16 -12 -33 -21 -38 -21 -4 0 -14 -13 -21 -30 -12 -25 -18 -29 -40 -24
-15 3 27 -25 93 -63 167 -96 221 -132 352 -234 72 -55 120 -86 129 -82 9 3 29
-4 45 -16 16 -12 34 -19 39 -16 11 7 -45 65 -62 65 -6 0 -7 7 -4 15 3 9 -9 37
-29 65 -19 28 -35 54 -35 59 0 5 -6 14 -14 20 -8 7 -17 30 -21 52 -4 21 -11
42 -16 45 -5 3 -7 22 -3 42 4 20 8 44 9 52 0 8 5 16 10 17 15 3 22 45 14 78
-10 37 -18 94 -24 160 -2 28 -7 70 -10 95 -4 35 -3 42 5 30 9 -12 10 -10 5 10
-4 14 -12 76 -17 139 -7 91 -7 120 4 139 10 20 13 93 12 321 -2 260 -5 318
-28 476 -50 349 -59 385 -151 561 -41 78 -137 187 -177 200 -10 3 -18 10 -18
15 0 5 -5 9 -11 9 -21 0 -106 44 -184 95 -51 33 -111 87 -164 145 -47 51 -99
101 -115 111 -44 27 -132 26 -161 -1 -19 -18 -26 -19 -49 -9 -48 22 -45 94 6
132 25 19 97 37 215 55 35 6 68 4 104 -5 62 -16 88 -11 69 12 -10 13 -9 15 11
16 13 1 30 1 37 0 6 -1 12 3 12 9 0 5 -4 10 -10 10 -5 0 -10 7 -10 15 0 8 -6
15 -14 15 -8 0 -22 18 -32 39 -20 46 -51 60 -74 33 -9 -9 -25 -22 -37 -29 -18
-10 -23 -9 -36 10 -15 22 -15 22 -28 -11 -11 -31 -14 -33 -45 -27 -35 6 -46
-7 -20 -22 8 -4 16 -19 18 -32 3 -23 -1 -25 -71 -37 -40 -7 -80 -10 -87 -7
-19 7 -34 36 -34 65 0 13 -5 29 -10 34 -17 17 99 110 184 150 41 19 104 57
140 84 36 27 84 60 107 72 38 19 44 20 68 7 14 -8 44 -42 67 -76 22 -34 59
-81 82 -105 23 -24 94 -126 158 -228 65 -102 150 -227 191 -277 86 -109 211
-290 242 -350 20 -41 46 -117 116 -348 20 -66 46 -149 57 -185 11 -36 32 -109
48 -162 15 -53 33 -105 39 -115 7 -13 10 531 11 1865 l0 1882 -2610 0 -2610 0
0 -3995z m2514 2708 c33 -41 45 -66 46 -92 0 -19 3 -21 14 -12 11 9 15 8 20
-5 3 -9 4 -19 2 -23 -3 -4 10 -7 27 -7 53 -1 184 -68 253 -129 12 -11 28 -25
36 -31 29 -26 80 -87 87 -108 5 -11 11 -46 15 -76 5 -34 15 -63 28 -77 18 -20
20 -32 17 -157 -3 -80 -8 -139 -15 -146 -8 -8 -21 -6 -48 7 -35 16 -41 16
-129 -2 -51 -10 -123 -20 -162 -21 -68 -3 -70 -4 -87 -36 -9 -18 -18 -49 -21
-69 -2 -19 -10 -45 -16 -58 -16 -29 -7 -51 19 -51 24 0 26 -13 5 -30 -11 -9
-12 -16 -3 -30 11 -17 13 -17 30 11 22 36 44 37 52 4 7 -29 37 -50 83 -60 30
-6 34 -4 50 29 9 20 22 36 29 36 13 0 44 -37 44 -52 0 -12 -81 -30 -134 -30
-40 0 -46 -2 -30 -11 23 -13 91 -28 124 -28 13 1 42 13 63 29 22 15 48 31 58
37 10 5 20 16 23 25 4 12 1 -173 -4 -245 -2 -45 -44 -158 -104 -280 -35 -71
-85 -182 -112 -245 -67 -162 -142 -281 -208 -330 -62 -45 -172 -94 -189 -83
-9 6 -110 14 -180 14 -9 0 -16 3 -13 7 2 4 -12 7 -32 7 -21 0 -41 2 -47 6 -5
3 -22 9 -37 13 -15 3 -37 16 -48 29 -26 27 -60 30 -80 7 -15 -17 -85 -26 -75
-9 4 5 3 9 -2 10 -4 0 -17 2 -29 3 -47 5 -152 112 -146 148 2 10 -2 18 -7 18
-6 0 -11 -5 -11 -12 0 -7 -27 14 -59 46 -40 40 -57 64 -54 75 4 9 3 13 -2 9
-19 -17 -32 12 -25 57 8 55 12 60 39 45 17 -9 21 -8 21 5 0 9 -6 18 -14 21
-14 5 -16 28 -3 40 12 12 8 21 -12 27 -10 2 -24 14 -30 26 -11 20 -9 21 26 20
29 0 33 -2 18 -8 -19 -8 -19 -8 3 -15 12 -4 20 -11 17 -16 -3 -4 2 -23 12 -42
31 -63 34 -69 29 -76 -2 -4 2 -13 10 -20 11 -10 14 -10 15 0 0 11 2 11 6 0 8
-19 33 5 32 32 0 20 -1 21 -9 1 -8 -19 -9 -19 -9 3 -1 13 8 32 19 44 l20 22 0
-23 c0 -12 4 -20 9 -17 13 8 7 51 -7 48 -14 -2 -14 0 -6 22 5 14 9 14 22 4 13
-11 12 -8 -2 20 -19 37 -13 102 10 102 10 0 14 14 15 48 2 90 -2 107 -28 130
-17 16 -27 35 -27 55 -1 18 -4 37 -7 42 -3 6 -16 44 -29 85 -13 41 -29 82 -37
91 -7 8 -13 21 -13 27 0 6 -9 27 -21 46 -13 22 -18 43 -14 56 4 11 2 20 -4 20
-6 0 -11 9 -11 20 0 11 5 19 10 17 6 -1 12 36 14 91 4 72 9 101 25 125 14 22
21 27 21 15 0 -24 27 -23 82 2 49 21 231 45 282 37 78 -13 209 -98 192 -125
-4 -6 -27 0 -57 15 -42 21 -69 26 -146 29 -94 3 -129 -5 -172 -40 -8 -6 -30
-16 -50 -22 l-36 -10 35 -19 c56 -29 62 -44 32 -83 l-26 -34 37 7 c28 5 48 1
92 -20 31 -14 82 -30 113 -36 68 -11 158 -12 148 -2 -8 8 -13 9 -68 11 -20 1
-44 9 -53 19 -16 15 -15 17 12 28 15 7 34 19 42 28 12 16 15 16 41 0 16 -9 31
-24 33 -33 2 -10 15 -19 29 -22 22 -4 24 -2 20 26 l-5 30 32 -27 c37 -31 39
-42 9 -42 -12 0 -23 -5 -25 -12 -2 -6 7 -10 24 -8 43 3 63 15 56 32 -5 13 -2
15 18 9 77 -24 99 -15 99 40 0 19 5 34 10 34 6 0 10 6 10 14 0 7 11 35 25 61
25 45 30 82 12 76 -5 -2 -21 8 -35 21 -46 42 -75 58 -87 48 -7 -6 -29 0 -60
15 -28 13 -56 25 -63 25 -7 0 -31 9 -53 21 -53 26 -280 49 -310 31 -10 -6 -25
-9 -34 -6 -8 4 -21 1 -29 -5 -7 -6 -20 -9 -28 -6 -8 3 -26 2 -39 -4 -26 -9
-59 6 -59 26 0 6 -6 16 -14 22 -17 14 -7 78 18 116 10 15 15 29 12 33 -9 8 35
52 46 46 6 -4 8 6 6 22 -2 18 2 28 9 27 6 -1 16 11 22 27 10 30 25 38 36 20 3
-5 15 -10 26 -10 10 0 19 -5 19 -11 0 -26 24 1 36 41 10 33 10 47 2 58 -17 20
28 54 63 46 16 -3 30 1 39 11 7 8 18 15 26 15 7 0 22 9 33 21 10 11 28 19 38
17 11 -1 30 4 44 13 37 25 124 42 229 45 156 5 165 10 125 78 -30 51 -25 61 9
19z m-395 -888 c30 -15 100 -95 83 -95 -5 0 -15 7 -22 15 -7 8 -18 15 -26 15
-7 0 -19 6 -26 13 -14 13 -24 16 -67 21 -32 4 -71 23 -71 36 0 15 98 12 129
-5z m-989 -81 c0 -11 9 -29 20 -39 21 -19 21 -19 -9 -37 -34 -22 -54 -71 -53
-129 1 -51 4 -55 59 -68 27 -7 58 -22 70 -33 20 -19 23 -19 29 -4 3 9 3 29 -1
44 -14 59 -16 90 -6 96 7 5 11 -2 11 -16 0 -24 33 -61 44 -51 3 4 6 16 7 27 0
21 1 21 8 1 16 -39 0 -106 -33 -140 -36 -37 -86 -52 -87 -26 0 10 -2 12 -6 4
-5 -15 -33 -18 -33 -4 0 5 -22 32 -49 60 -35 36 -51 61 -56 89 -7 41 1 100 15
117 5 6 12 29 15 50 3 22 7 47 8 57 2 9 9 24 17 33 15 19 30 4 30 -31z m867
-53 c39 -18 20 -24 -20 -7 -44 18 -64 50 -45 73 11 14 15 12 26 -19 8 -20 25
-41 39 -47z m30 43 c-9 -9 -28 6 -21 18 4 6 10 6 17 -1 6 -6 8 -13 4 -17z
m977 -5 c17 -8 25 -18 22 -28 -3 -9 -8 -34 -12 -56 -11 -67 -17 -70 -51 -32
-26 30 -50 46 -115 78 -10 5 -27 9 -37 9 -11 0 -23 5 -27 12 -5 7 -2 9 8 5 9
-3 24 0 34 7 23 17 144 20 178 5z m-151 -70 c35 -18 77 -61 76 -78 0 -11 -2
-12 -6 -3 -2 6 -16 12 -29 12 -15 0 -24 6 -24 16 0 8 -4 13 -8 10 -11 -7 -82
15 -82 25 0 5 -24 6 -52 3 l-53 -5 35 14 c44 18 114 21 143 6z m-1580 -90 c-5
-5 -7 7 -4 29 5 34 6 35 9 8 2 -16 0 -32 -5 -37z m1517 31 c0 -5 -2 -10 -4
-10 -3 0 -8 5 -11 10 -3 6 -1 10 4 10 6 0 11 -4 11 -10z m-55 -30 c3 -5 1 -10
-4 -10 -6 0 -11 5 -11 10 0 6 2 10 4 10 3 0 8 -4 11 -10z m-1688 -190 c6 -31
24 -71 41 -88 6 -7 12 -23 12 -35 0 -57 -72 100 -84 183 l-6 45 16 -40 c8 -22
18 -51 21 -65z m149 -56 c-4 -11 -2 -15 7 -11 8 3 19 2 26 -2 17 -11 2 -41
-20 -41 -10 0 -19 -7 -19 -15 0 -12 -4 -13 -18 -6 -18 9 -28 51 -13 51 5 0 11
9 14 20 3 11 11 20 17 20 7 0 10 -7 6 -16z m258 -283 c-7 -9 -35 30 -29 40 5
7 12 2 19 -13 7 -12 11 -25 10 -27z m112 -11 c5 0 10 -8 12 -18 3 -16 -2 -18
-30 -14 -18 3 -27 7 -20 9 6 3 12 14 12 26 0 16 3 18 9 9 4 -8 12 -13 17 -12z
m-49 -166 c-3 -3 -12 -4 -19 -1 -8 3 -5 6 6 6 11 1 17 -2 13 -5z m980 -556
c-3 -24 -17 -83 -31 -133 -14 -49 -26 -102 -26 -117 0 -28 -13 -37 -25 -18 -3
5 -32 22 -63 38 -51 25 -84 44 -197 114 l-30 19 30 -7 c17 -4 31 -10 33 -14 6
-16 64 1 108 31 26 18 64 41 83 51 l36 19 -42 -4 c-30 -4 -50 -14 -73 -37 -27
-28 -53 -37 -51 -17 1 4 1 13 1 20 0 14 66 47 93 47 10 0 34 9 54 20 39 21 93
29 63 10 -10 -7 -11 -10 -2 -10 7 0 15 7 18 15 13 32 26 14 21 -27z m-977
-138 c0 -5 -2 -10 -4 -10 -3 0 -8 5 -11 10 -3 6 -1 10 4 10 6 0 11 -4 11 -10z
m74 -39 c-2 -3 -9 0 -15 6 -6 6 -18 9 -25 6 -17 -6 -18 9 -2 25 10 10 16 8 30
-10 9 -13 15 -25 12 -27z m-44 -33 c0 -5 -7 -8 -15 -8 -10 0 -15 10 -15 27 0
26 1 26 15 7 8 -10 15 -22 15 -26z m140 -58 c11 0 24 -9 30 -20 7 -13 7 -20 1
-20 -18 0 -61 23 -61 32 0 5 -6 6 -12 2 -8 -5 -7 -1 2 10 8 11 16 14 18 7 2
-6 12 -11 22 -11z m68 -49 c-7 -9 -14 -18 -15 -20 -2 -2 -3 5 -3 16 0 11 7 20
15 20 12 0 12 -3 3 -16z m2064 -306 c21 -14 60 -30 88 -37 52 -12 130 -68 130
-93 0 -8 -26 -34 -58 -58 -45 -35 -64 -44 -85 -40 -27 5 -33 19 -29 66 1 10
-2 26 -8 35 -7 13 -10 6 -10 -28 -1 -78 -18 -284 -25 -301 -5 -13 -15 -16 -48
-12 -48 6 -75 22 -56 33 8 6 8 13 0 26 -9 17 -10 17 -11 2 0 -30 -19 -20 -40
21 -27 54 -37 193 -15 211 13 11 18 10 29 -6 8 -10 12 -25 9 -34 -4 -13 -4
-13 6 0 6 8 11 23 11 33 0 9 4 17 9 17 5 0 14 14 20 30 8 25 7 32 -4 37 -8 3
-15 12 -15 20 0 7 -6 13 -12 12 -31 -4 -39 1 -29 19 11 21 51 27 51 8 0 -8 9
-16 19 -19 14 -3 20 2 24 19 2 13 1 24 -2 25 -56 7 -72 16 -51 29 26 17 64 11
102 -15z m-1713 -101 c47 -9 90 -20 96 -25 5 -5 24 -9 41 -9 18 0 35 -4 38 -9
4 -5 24 -12 46 -16 23 -4 39 -12 38 -18 -1 -7 19 -34 45 -62 26 -27 47 -55 47
-60 0 -6 11 -26 24 -46 46 -67 66 -108 55 -114 -5 -4 -22 7 -38 24 -16 17 -34
31 -40 31 -6 0 -11 6 -11 13 0 19 -79 92 -126 115 -41 21 -75 52 -56 52 5 0
15 -6 21 -14 6 -7 32 -21 57 -31 26 -10 60 -32 76 -49 l29 -31 -15 30 c-28 55
-94 115 -126 115 -8 0 0 -10 18 -21 17 -12 32 -23 32 -26 0 -9 -46 10 -66 28
-11 10 -44 23 -74 29 -30 6 -58 14 -64 20 -5 5 0 7 15 4 18 -4 21 -3 9 4 -8 7
-47 8 -97 5 -59 -4 -83 -3 -83 6 0 6 6 11 14 11 10 0 12 7 8 22 -5 20 -7 19
-38 -15 -38 -41 -72 -56 -85 -36 -6 10 -9 11 -9 2 0 -7 -11 -13 -25 -13 -14 0
-25 -3 -25 -8 0 -9 -80 -35 -87 -28 -12 12 135 72 164 67 6 -1 15 3 18 10 10
16 -81 1 -131 -21 -44 -20 -93 -72 -75 -78 6 -2 11 -8 11 -13 0 -11 -33 1 -42
15 -20 30 126 126 191 126 14 0 44 7 66 15 51 18 52 18 154 -1z m1573 4 c-5
-7 -11 -21 -13 -30 -2 -10 -9 -14 -15 -10 -16 10 1 52 22 52 12 0 14 -3 6 -12z
m-1333 -43 c3 -17 2 -17 -13 -3 -19 20 -21 31 -3 26 6 -3 14 -13 16 -23z
m-109 -89 c0 -11 101 -99 138 -121 12 -6 12 -3 2 16 -13 24 -13 24 9 5 19 -17
51 -70 51 -84 0 -3 -10 4 -22 15 -39 34 -54 40 -35 12 25 -35 21 -42 -13 -18
-16 12 -27 26 -24 30 2 4 0 10 -5 14 -6 3 -8 12 -5 19 4 9 -7 18 -33 26 -21 7
-42 17 -48 23 -7 7 -6 8 3 3 17 -10 15 4 -5 26 -9 10 -29 18 -44 18 -15 0 -30
4 -33 9 -3 4 6 6 19 3 19 -3 25 0 25 12 0 10 5 14 10 11 6 -3 10 -12 10 -19z
m397 -12 c11 -20 23 -32 27 -26 3 6 -1 17 -9 25 -20 21 -19 32 4 34 21 2 35
-43 25 -82 l-6 -23 -22 22 c-21 21 -56 70 -56 81 0 16 19 0 37 -31z m-23 -35
c-3 -5 2 -9 10 -9 9 0 23 -11 32 -25 16 -24 18 -25 35 -9 11 10 22 14 26 10 4
-3 -3 -16 -16 -27 -18 -17 -24 -19 -38 -7 -9 7 -23 13 -32 13 -9 0 -15 8 -15
17 1 9 -4 19 -12 22 -8 3 -11 0 -7 -10 9 -24 -21 -15 -40 12 -22 30 -14 43 14
25 24 -14 39 -7 21 11 -7 7 -12 17 -12 23 1 5 9 -1 20 -14 11 -12 17 -27 14
-32z m-829 31 c-27 -12 -43 -12 -25 0 8 5 22 9 30 9 10 0 8 -3 -5 -9z m170
-136 c-5 -28 -9 -34 -15 -23 -6 8 -6 15 0 17 6 2 10 15 10 30 0 14 3 23 6 19
4 -3 3 -23 -1 -43z m190 36 c-3 -5 -14 -10 -23 -10 -15 0 -15 2 -2 10 20 13
33 13 25 0z m137 -2 c10 0 20 -4 23 -9 8 -11 -64 -1 -85 13 -10 6 -6 7 15 2
17 -4 38 -6 47 -6z m-264 -16 c2 -7 -3 -12 -10 -12 -8 0 -15 7 -15 15 0 18 19
15 25 -3z m630 6 c-5 -16 -48 -24 -48 -9 0 8 17 16 43 20 5 0 7 -5 5 -11z
m-518 -28 c0 -13 -29 -32 -40 -25 -17 10 -11 25 7 18 12 -5 15 -2 10 10 -4 11
-2 14 9 10 7 -3 14 -9 14 -13z m160 -10 c23 -12 24 -12 11 3 -7 10 -9 17 -3
17 10 0 22 -23 22 -41 0 -5 -13 -3 -30 6 -16 8 -54 15 -85 15 -31 0 -54 4 -51
8 8 13 109 7 136 -8z m422 -15 c4 -17 3 -32 -2 -35 -7 -4 -5 -22 5 -49 21 -60
18 -76 -4 -20 -10 25 -28 56 -39 67 -26 26 -28 42 -7 42 8 0 15 7 15 16 0 26
23 10 32 -21z m-656 14 c3 -6 2 -15 -4 -21 -6 -6 -11 -2 -15 11 -5 22 7 29 19
10z m-46 -9 c0 -5 -2 -10 -4 -10 -3 0 -8 5 -11 10 -3 6 -1 10 4 10 6 0 11 -4
11 -10z m754 -7 c2 -10 8 -29 11 -42 5 -16 4 -21 -4 -17 -6 4 -11 18 -11 31 0
13 -4 26 -9 30 -6 3 -8 -10 -5 -32 3 -29 2 -33 -5 -18 -15 31 -13 65 3 65 8 0
17 -8 20 -17z m-834 -22 c0 10 3 10 11 2 16 -16 1 -35 -23 -27 -17 5 -19 3
-10 -11 15 -28 3 -55 -24 -55 -13 0 -24 -4 -24 -10 0 -5 -5 -10 -11 -10 -5 0
-7 5 -4 10 4 6 2 17 -5 25 -14 17 7 32 23 16 6 -6 17 -11 25 -11 7 0 1 11 -15
26 -17 15 -21 24 -11 20 12 -4 18 3 24 27 l6 31 19 -23 c11 -13 19 -17 19 -10z
m340 4 c11 -14 10 -14 -12 -6 -13 5 -49 7 -79 5 -38 -3 -48 -1 -34 5 33 16
111 13 125 -4z m-430 -21 c0 -8 -4 -14 -9 -14 -11 0 -22 26 -14 34 9 9 23 -3
23 -20z m604 10 c9 -22 -3 -32 -14 -14 -12 19 -12 30 -1 30 5 0 12 -7 15 -16z
m40 0 c9 -22 -3 -32 -14 -14 -12 19 -12 30 -1 30 5 0 12 -7 15 -16z m-366 -12
c6 -18 -15 -14 -22 4 -4 10 -1 14 6 12 6 -2 14 -10 16 -16z m-302 -31 c-4 -6
-15 -11 -24 -11 -12 0 -13 3 -5 11 6 6 9 19 6 28 -5 15 -4 15 12 -1 9 -9 14
-21 11 -27z m265 19 c32 -26 5 -26 -28 0 -17 13 -21 20 -10 20 8 0 25 -9 38
-20z m583 7 c16 -15 29 -67 18 -67 -7 0 -42 62 -42 75 0 9 11 5 24 -8z m-64
-33 c0 -8 -7 -14 -15 -14 -15 0 -21 21 -9 33 10 9 24 -2 24 -19z m-405 6 c3
-6 -5 -10 -19 -10 -14 0 -28 5 -31 10 -3 6 5 10 19 10 14 0 28 -4 31 -10z
m-435 -21 c0 -5 -4 -9 -10 -9 -5 0 -10 7 -10 16 0 8 5 12 10 9 6 -3 10 -10 10
-16z m730 6 c0 -8 -4 -15 -9 -15 -5 0 -14 7 -21 15 -10 13 -9 15 9 15 12 0 21
-6 21 -15z m-796 -37 c-15 -29 -15 -33 0 -43 21 -16 12 -23 -20 -17 -15 3 -29
15 -35 30 -9 24 -10 24 -24 6 -12 -16 -12 -19 1 -22 13 -3 12 -6 -3 -17 -24
-17 -8 -33 17 -17 11 7 20 8 20 2 0 -34 -85 -26 -108 10 -11 18 -9 24 13 46
18 18 25 21 25 9 0 -20 16 -19 24 1 3 9 12 14 20 11 7 -3 26 3 42 13 41 26 47
24 28 -12z m116 13 c0 -5 3 -18 6 -28 5 -16 4 -16 -10 1 -18 23 -20 36 -6 36
6 0 10 -4 10 -9z m805 -9 c4 -10 -5 -12 -32 -10 -20 2 -38 8 -40 14 -5 16 66
11 72 -4z m-840 -26 c10 -15 12 -30 6 -51 -7 -25 -10 -27 -16 -12 -12 29 -23
19 -31 -28 -3 -25 -10 -45 -15 -45 -11 0 -11 11 0 70 8 36 6 46 -7 57 -13 10
-14 12 -3 13 8 0 23 -7 33 -17 10 -9 21 -13 24 -10 9 9 -15 37 -32 37 -8 0
-14 4 -14 9 0 16 41 -1 55 -23z m930 3 c4 -6 5 -13 2 -16 -8 -7 -47 7 -47 18
0 13 37 11 45 -2z m70 1 c-3 -5 -12 -10 -18 -10 -7 0 -6 4 3 10 19 12 23 12
15 0z m-342 -32 c-17 -16 -27 -19 -50 -13 -28 8 -28 8 12 15 21 4 41 13 43 19
2 7 7 10 10 6 3 -3 -4 -15 -15 -27z m152 7 c0 -27 -31 -32 -38 -6 -6 24 1 33
23 29 8 -2 15 -12 15 -23z m-725 -15 c6 -11 8 -20 6 -20 -3 0 -10 9 -16 20 -6
11 -8 20 -6 20 3 0 10 -9 16 -20z m36 -7 c-7 -7 -26 7 -26 19 0 6 6 6 15 -2 9
-7 13 -15 11 -17z m626 -1 c-16 -10 -22 -25 -23 -51 l-1 -36 -15 35 c-14 33
-14 35 12 57 14 13 31 20 38 16 7 -4 3 -12 -11 -21z m-657 -30 c21 -23 36 -42
32 -42 -14 0 -77 63 -77 78 0 8 1 13 3 11 1 -2 20 -23 42 -47z m490 9 c6 -11
-1 -16 -37 -25 -17 -4 -28 -2 -28 4 0 5 12 10 28 10 21 0 24 2 12 10 -13 8
-13 10 2 10 9 0 19 -4 23 -9z m241 -18 c-10 -10 -19 5 -10 18 6 11 8 11 12 0
2 -7 1 -15 -2 -18z m-46 8 c0 -5 -7 -12 -16 -15 -21 -8 -24 -8 -24 5 0 5 5 7
10 4 6 -3 10 -1 10 4 0 6 5 11 10 11 6 0 10 -4 10 -9z m-140 -47 c0 -13 -3
-23 -7 -22 -5 1 -23 -3 -41 -10 -26 -9 -33 -16 -30 -34 4 -32 -24 -34 -39 -2
-11 24 -10 26 22 40 19 8 41 14 49 14 8 0 18 5 21 10 4 6 -7 10 -25 10 -19 0
-29 4 -25 10 4 6 11 8 16 5 5 -4 17 -2 26 4 23 12 33 5 33 -25z m-147 -32
c-27 -25 -37 -24 -27 2 3 9 13 16 21 16 9 0 13 6 10 14 -3 8 -3 17 1 21 3 3
10 -2 13 -12 5 -12 0 -25 -18 -41z m197 42 c0 -17 -22 -14 -28 4 -2 7 3 12 12
12 9 0 16 -7 16 -16z m-728 -76 c5 -28 4 -29 -9 -13 -15 21 -17 45 -4 45 5 0
11 -14 13 -32z m548 -13 c0 -18 -4 -23 -16 -18 -10 4 -14 1 -12 -8 2 -8 0 -14
-3 -14 -3 0 -13 -6 -21 -13 -14 -11 -16 -9 -14 13 0 14 6 23 12 21 6 -2 17 6
24 20 17 31 30 31 30 -1z m-632 -22 c4 -25 -24 -38 -32 -16 -4 9 -4 18 -1 21
3 3 5 0 5 -6 0 -7 5 -12 10 -12 7 0 7 7 -1 21 -9 17 -8 20 3 17 7 -3 14 -14
16 -25z m52 11 c0 -2 -9 -4 -20 -4 -11 0 -20 4 -20 9 0 5 9 7 20 4 11 -3 20
-7 20 -9z m-100 -44 c0 -12 -3 -12 -16 2 -9 9 -13 21 -9 28 9 14 25 -5 25 -30z
m770 20 c0 -5 -4 -10 -10 -10 -5 0 -10 5 -10 10 0 6 5 10 10 10 6 0 10 -4 10
-10z m-656 -40 c14 -22 25 -40 23 -40 -2 0 -21 18 -42 40 -26 26 -34 40 -23
40 8 0 27 -18 42 -40z m26 20 c6 -11 8 -20 6 -20 -3 0 -10 9 -16 20 -6 11 -8
20 -6 20 3 0 10 -9 16 -20z m538 -12 c-2 -6 -10 -14 -16 -16 -7 -2 -10 2 -6
12 7 18 28 22 22 4z m-38 -28 c0 -5 -7 -10 -15 -10 -8 0 -15 5 -15 10 0 6 7
10 15 10 8 0 15 -4 15 -10z m47 -25 c-4 -8 -12 -15 -19 -14 -10 0 -10 2 0 6 6
2 12 12 12 21 0 8 3 13 6 9 4 -3 4 -13 1 -22z m429 -50 c-9 -19 -21 -37 -26
-40 -5 -3 -3 7 5 22 8 15 15 35 15 44 0 20 13 34 18 19 2 -6 -3 -26 -12 -45z
m-496 41 c0 -3 -4 -8 -10 -11 -5 -3 -10 -1 -10 4 0 6 5 11 10 11 6 0 10 -2 10
-4z m40 -26 c0 -5 -5 -10 -12 -10 -6 0 -22 -9 -34 -21 -18 -16 -26 -19 -41
-10 -15 9 -16 10 -2 11 9 0 27 9 40 20 26 21 49 26 49 10z m1770 -38 c0 -12
-3 -12 -15 -2 -8 7 -15 13 -15 15 0 1 7 2 15 2 8 0 15 -7 15 -15z m-1405 -22
c-3 -5 -1 -10 6 -10 7 0 10 -3 6 -6 -9 -9 -28 6 -22 17 4 5 8 9 11 9 3 0 2 -4
-1 -10z m716 -47 c-9 -15 -10 -12 -10 17 0 29 1 32 10 18 7 -12 7 -24 0 -35z
m-741 -32 c0 -9 -41 -23 -49 -16 -3 4 28 20 47 24 1 1 2 -3 2 -8z m-540 -50
c-6 -12 -15 -21 -21 -21 -5 0 -2 11 7 25 20 30 31 26 14 -4z m525 -1 c-3 -5
-13 -10 -21 -10 -8 0 -14 5 -14 10 0 6 9 10 21 10 11 0 17 -4 14 -10z m-110
-68 c-8 -8 -25 10 -25 27 0 30 14 34 22 5 4 -16 6 -30 3 -32z m880 48 c3 -5 1
-10 -4 -10 -6 0 -11 5 -11 10 0 6 2 10 4 10 3 0 8 -4 11 -10z m-925 -16 c0 -8
-4 -12 -10 -9 -5 3 -10 10 -10 16 0 5 5 9 10 9 6 0 10 -7 10 -16z m80 1 c0 -8
-4 -15 -10 -15 -5 0 -10 7 -10 15 0 8 5 15 10 15 6 0 10 -7 10 -15z m-120 -31
c0 -35 -15 -30 -18 7 -2 19 2 28 8 24 5 -3 10 -17 10 -31z m-40 -28 c-4 -19
-5 -37 -2 -40 3 -4 -2 -6 -11 -6 -9 0 -15 6 -13 13 3 6 7 24 10 40 4 15 10 27
15 27 5 0 5 -16 1 -34z m-327 -20 c-10 -5 -23 -17 -30 -25 -6 -9 -15 -13 -19
-9 -4 4 -1 15 7 24 12 15 11 16 -9 10 -13 -4 -22 -3 -22 3 0 12 37 24 50 16 5
-3 10 -1 10 6 0 8 4 8 16 -2 14 -11 13 -14 -3 -23z m52 2 c-6 -26 -5 -30 9
-25 10 4 16 1 16 -8 0 -8 6 -15 13 -15 6 0 -1 -9 -18 -20 -16 -11 -33 -20 -36
-20 -10 0 -8 83 3 103 14 27 20 20 13 -15z m238 0 c-10 -46 -13 -52 -24 -41
-7 7 -6 19 2 36 15 33 29 35 22 5z m-53 -17 c0 -13 -28 -33 -41 -29 -8 3 -6 9
5 21 19 18 36 22 36 8z m-310 -16 c0 -16 -48 -40 -59 -29 -7 6 36 44 50 44 5
0 9 -7 9 -15z m250 -33 c0 -7 -4 -10 -10 -7 -5 3 -10 16 -10 28 0 18 2 19 10
7 5 -8 10 -21 10 -28z m-183 1 c-9 -9 -19 -14 -23 -11 -10 10 6 28 24 28 15 0
15 -1 -1 -17z m143 -3 c0 -5 -4 -10 -10 -10 -5 0 -10 5 -10 10 0 6 5 10 10 10
6 0 10 -4 10 -10z m2034 -212 c28 -12 43 -45 28 -60 -5 -5 -35 -6 -71 -2 -57
6 -61 8 -55 28 14 47 46 58 98 34z m14 -83 c6 -3 12 -14 12 -26 0 -21 -1 -22
-20 -4 -11 10 -37 19 -57 21 -21 2 -41 3 -45 3 -5 1 -8 6 -8 11 0 10 82 6 118
-5z"/>
<path d="M4490 6051 c0 -6 5 -13 10 -16 6 -3 10 1 10 9 0 9 -4 16 -10 16 -5 0
-10 -4 -10 -9z"/>
<path d="M5306 5844 c-4 -9 -4 -19 -1 -22 2 -3 7 3 11 12 4 9 4 19 1 22 -2 3
-7 -3 -11 -12z"/>
<path d="M5339 5809 c-9 -17 -8 -23 2 -30 15 -9 39 14 39 38 0 21 -28 15 -41
-8z"/>
<path d="M4965 5630 c-3 -5 -2 -10 4 -10 5 0 13 5 16 10 3 6 2 10 -4 10 -5 0
-13 -4 -16 -10z"/>
<path d="M5437 5519 c7 -7 15 -10 18 -7 3 3 -2 9 -12 12 -14 6 -15 5 -6 -5z"/>
<path d="M4982 5338 c-14 -14 -15 -67 -3 -121 11 -47 47 -88 70 -80 12 4 13 3
2 -5 -9 -6 -11 -19 -6 -40 8 -39 29 -56 59 -48 14 3 28 2 31 -4 11 -18 51 -11
86 15 19 13 52 34 75 45 23 11 54 34 70 51 l29 30 -42 -7 c-47 -7 -84 12 -139
74 -28 31 -32 33 -41 18 -7 -13 -15 -15 -34 -8 -36 13 -112 3 -105 -14 7 -17
-8 -18 -22 -1 -16 20 -26 61 -13 52 8 -5 10 2 5 22 -9 35 -8 35 -22 21z"/>
<path d="M4970 4975 c-134 -19 -150 -24 -150 -46 0 -10 5 -19 11 -19 23 0 174
-164 184 -200 8 -27 18 -38 45 -47 61 -21 95 -16 144 22 26 19 52 35 59 35 7
0 30 16 50 35 20 19 46 35 57 35 39 0 27 23 -70 131 -33 36 -37 38 -71 30 -30
-7 -43 -4 -75 15 -43 26 -61 27 -184 9z m174 -140 c17 -3 33 -11 38 -18 6 -9
8 -9 8 2 0 10 3 11 14 2 10 -8 16 -9 21 -1 10 16 25 12 25 -9 0 -35 -25 -45
-75 -28 -24 9 -47 12 -50 7 -12 -19 -75 21 -75 48 0 11 8 13 33 8 17 -3 45 -8
61 -11z"/>
<path d="M4555 4700 c-3 -5 1 -10 10 -10 9 0 13 5 10 10 -3 6 -8 10 -10 10 -2
0 -7 -4 -10 -10z"/>
<path d="M4485 4660 c-3 -5 -1 -10 4 -10 6 0 11 5 11 10 0 6 -2 10 -4 10 -3 0
-8 -4 -11 -10z"/>
<path d="M4420 4641 c0 -6 4 -13 10 -16 6 -3 7 1 4 9 -7 18 -14 21 -14 7z"/>
<path d="M4620 4600 c0 -5 5 -10 11 -10 5 0 7 5 4 10 -3 6 -8 10 -11 10 -2 0
-4 -4 -4 -10z"/>
<path d="M4527 4543 c-4 -7 3 -21 15 -32 26 -25 38 -27 38 -6 0 9 -6 12 -17 8
-13 -5 -15 -2 -10 11 4 9 3 15 -2 11 -5 -3 -11 0 -13 7 -3 9 -6 9 -11 1z"/>
<path d="M4676 4532 c-3 -5 1 -9 9 -9 8 0 12 4 9 9 -3 4 -7 8 -9 8 -2 0 -6 -4
-9 -8z"/>
<path d="M4720 4506 c0 -8 -6 -17 -12 -19 -8 -3 -6 -6 5 -6 11 -1 17 6 17 19
0 11 -2 20 -5 20 -3 0 -5 -6 -5 -14z"/>
<path d="M4607 4479 c7 -7 15 -10 18 -7 3 3 -2 9 -12 12 -14 6 -15 5 -6 -5z"/>
<path d="M5200 4294 c0 -8 5 -12 10 -9 6 3 10 10 10 16 0 5 -4 9 -10 9 -5 0
-10 -7 -10 -16z"/>
<path d="M6458 3391 c4 -10 1 -12 -8 -6 -9 5 -11 4 -6 -3 4 -7 14 -12 23 -12
9 0 13 3 10 7 -4 3 -3 11 3 17 6 8 3 12 -9 12 -12 0 -17 -5 -13 -15z"/>
<path d="M4850 3562 c8 -5 35 -12 59 -16 24 -4 70 -16 103 -27 33 -11 65 -18
70 -17 16 6 -149 58 -200 64 -31 3 -42 2 -32 -4z"/>
<path d="M4828 3543 c7 -3 16 -2 19 1 4 3 -2 6 -13 5 -11 0 -14 -3 -6 -6z"/>
<path d="M5236 3315 c4 -8 10 -15 15 -15 4 0 6 7 3 15 -4 8 -10 15 -15 15 -4
0 -6 -7 -3 -15z"/>
<path d="M4342 3098 c5 -15 28 -18 29 -3 0 6 -7 12 -17 13 -10 3 -15 -1 -12
-10z"/>
<path d="M5091 2944 c0 -11 3 -14 6 -6 3 7 2 16 -1 19 -3 4 -6 -2 -5 -13z"/>
<path d="M7583 3435 c0 -22 2 -30 4 -17 2 12 2 30 0 40 -3 9 -5 -1 -4 -23z"/>
<path d="M7581 3354 c0 -11 3 -14 6 -6 3 7 2 16 -1 19 -3 4 -6 -2 -5 -13z"/>
<path d="M7003 2690 c-35 -14 -47 -45 -27 -75 9 -13 25 -27 36 -31 24 -7 74
12 82 32 7 18 -19 61 -45 74 -20 11 -17 11 -46 0z m66 -34 c9 -11 8 -18 -4
-30 -20 -20 -59 -21 -74 -2 -10 11 -7 17 11 30 28 20 52 20 67 2z"/>
<path d="M6947 2539 c-10 -74 41 -116 103 -84 34 17 37 27 15 45 -22 18 -18
32 8 28 18 -2 23 -11 27 -51 6 -56 22 -63 27 -12 2 25 -3 45 -16 64 -19 26
-25 28 -69 23 -36 -3 -51 0 -61 12 -21 25 -28 19 -34 -25z m85 -33 c12 -17 3
-31 -21 -34 -29 -5 -50 14 -44 38 4 16 11 18 32 13 14 -3 29 -11 33 -17z"/>
<path d="M6940 2405 c-12 -23 -11 -28 10 -50 13 -14 32 -25 43 -25 20 0 77 30
77 41 0 11 -51 61 -57 56 -3 -4 2 -13 11 -23 13 -12 14 -19 5 -30 -17 -20 -22
-18 -43 21 -23 42 -28 43 -46 10z m44 -47 c-9 -15 -33 12 -27 29 5 14 8 14 19
-2 7 -10 11 -22 8 -27z"/>
<path d="M7014 2304 c5 -14 1 -16 -26 -11 -18 4 -43 9 -55 13 -18 5 -23 2 -23
-13 0 -19 17 -43 32 -43 4 0 4 8 1 17 -5 13 -3 15 13 9 36 -14 81 -18 88 -8 7
12 -14 52 -27 52 -5 0 -6 -7 -3 -16z"/>
<path d="M6910 1980 c0 -5 5 -10 10 -10 6 0 10 5 10 10 0 6 -4 10 -10 10 -5 0
-10 -4 -10 -10z"/>
<path d="M6960 502 c0 -11 -3 -34 -6 -51 -5 -24 -3 -31 10 -31 9 0 16 -4 16
-10 0 -5 7 -10 15 -10 8 0 15 5 15 10 0 6 -7 10 -16 10 -11 0 -14 5 -10 16 3
9 6 22 6 30 0 10 5 12 13 8 7 -5 6 2 -4 16 -20 31 -39 37 -39 12z"/>
</g>
</svg>
